<svg viewBox="0 0 2834.6 552.9" version="1.1" xmlns="http://www.w3.org/2000/svg" id="Calque_1">
  
  <path fill="#00463c" d="M0,414.7V0h129.9c3.8,0,11,.1,21.5.3,10.5.2,20.5,1,30.1,2.3,32.4,4,59.8,15.7,81.9,34.8s38.9,43.5,50.2,73c11.3,29.5,17,61.8,17,96.9s-5.7,67.7-17,97.2c-11.3,29.5-28.1,53.8-50.2,72.9s-49.5,30.7-81.9,34.7c-9.6,1.4-19.6,2.1-30.1,2.3-10.5.2-17.6.3-21.5.3H0ZM61.6,357.4h68.2c6.5,0,14.3-.2,23.3-.6,9-.4,17-1.1,23.9-2.3,21.1-4,38.3-13.2,51.4-27.5,13.1-14.3,22.8-31.9,28.9-52.8,6.1-20.9,9.2-43.2,9.2-66.8s-3.2-47-9.5-67.8c-6.4-20.8-16.1-38.3-29.2-52.4-13.1-14.1-30.1-23.1-50.8-26.9-6.9-1.3-14.9-2.2-24-2.4-9.1-.3-16.8-.4-23.2-.4H61.6v300.1Z"></path>
  <path fill="#00463c" d="M485.5,423.3c-23,0-42.3-4.3-57.9-12.8-15.5-8.6-27.3-19.9-35.3-34-8-14.1-12-29.6-12-46.5s2.8-29.6,8.3-41.5c5.6-11.9,13.8-22,24.8-30.4,10.9-8.3,24.4-15.1,40.3-20.3,13.8-4,29.5-7.6,46.9-10.6,17.5-3.1,35.9-6,55.2-8.6,19.3-2.7,38.4-5.4,57.4-8.1l-21.9,12.1c.4-24.4-4.8-42.5-15.4-54.3-10.7-11.8-28.9-17.7-54.9-17.7s-31.3,3.8-44.9,11.4c-13.6,7.6-23.1,20.1-28.5,37.6l-56.1-17.3c7.7-26.7,22.3-47.9,43.9-63.6,21.6-15.7,50.3-23.6,86.2-23.6s52.1,4.8,72.7,14.3c20.6,9.5,35.8,24.5,45.4,45.1,5,10.2,8.1,20.9,9.2,32.2,1.1,11.3,1.7,23.5,1.7,36.6v191.5h-53.3v-71.1l10.4,9.2c-12.9,23.8-29.2,41.5-49.1,53.1-19.8,11.6-44.3,17.4-73.3,17.4ZM496.2,374.1c17.1,0,31.8-3,44.1-9.1,12.3-6,22.2-13.8,29.7-23.2,7.5-9.4,12.4-19.2,14.7-29.4,3.3-9.2,5.1-19.6,5.6-31.1.5-11.5.7-20.7.7-27.7l19.6,7.2c-19,2.9-36.3,5.5-51.8,7.8-15.5,2.3-29.6,4.6-42.2,6.8s-23.8,4.9-33.5,7.9c-8.3,2.9-15.6,6.3-22,10.4-6.4,4-11.5,8.9-15.3,14.7-3.7,5.7-5.6,12.8-5.6,21s2,15.5,6,22.3c4,6.8,10.2,12.2,18.4,16.3,8.2,4,18.8,6,31.7,6Z"></path>
  <path fill="#00463c" d="M750.4,552.9l60.2-163.9.8,48.4-135.6-333.7h62.8l101.4,257.7h-18.4l96.7-257.7h61l-171.6,449.2h-57.3Z"></path>
  <path fill="#00463c" d="M1024,414.7V103.7h53.9v89.8h7.2v221.1h-61ZM1242.6,414.7v-152.9c0-12.1-1-24.5-3-37.3-2-12.8-5.9-24.6-11.5-35.6s-13.6-19.8-23.9-26.5c-10.3-6.7-23.7-10.1-40.2-10.1s-20.9,1.8-30.5,5.3c-9.6,3.6-18,9.3-25.2,17.1s-12.9,18.2-17,31.1c-4.1,12.9-6.2,28.5-6.2,46.9l-37.4-14.1c0-28.2,5.3-53.1,15.8-74.7,10.6-21.6,25.7-38.4,45.5-50.5,19.8-12.1,43.7-18.1,71.7-18.1s39.5,3.4,54.1,10.4c14.6,6.9,26.4,16,35.5,27.2,9.1,11.2,16.1,23.5,20.9,36.7s8.1,26.2,9.8,38.9c1.7,12.7,2.6,23.8,2.6,33.4v172.8h-61Z"></path>
  <path fill="#00463c" d="M1512.6,423.3c-30.9,0-58-6.8-81.3-20.3-23.3-13.5-41.5-32.4-54.4-56.7-12.9-24.3-19.4-52.5-19.4-84.5s6.4-63.4,19.1-88.4c12.8-25,30.6-44.2,53.4-57.9,22.8-13.6,49.4-20.5,79.7-20.5s58.7,7.4,80.9,22c22.3,14.7,38.9,35.6,50,62.6,11.1,27.1,15.4,59.2,13.1,96.5h-60.2v-21.9c-.4-36.1-7.3-62.8-20.6-80.1-13.3-17.3-33.7-25.9-60.9-25.9s-52.8,9.5-68,28.5c-15.2,19-22.8,46.5-22.8,82.3s7.6,60.6,22.8,79.3c15.2,18.7,37,28.1,65.6,28.1s35.1-4.3,48.8-12.8c13.7-8.5,24.4-20.8,32.1-36.7l59.1,18.7c-12.1,27.8-30.5,49.4-55,64.7-24.6,15.3-51.9,22.9-82.1,22.9ZM1401.8,276.1v-46.9h222v46.9h-222Z"></path>
  <path fill="#00463c" d="M1856.2,423.3c-30.9,0-58-6.8-81.4-20.3-23.3-13.5-41.4-32.4-54.4-56.7-12.9-24.3-19.4-52.5-19.4-84.5s6.4-63.4,19.1-88.4c12.7-25,30.6-44.2,53.4-57.9,22.8-13.6,49.4-20.5,79.8-20.5s58.6,7.4,80.9,22c22.3,14.7,38.9,35.6,50,62.6,11.1,27.1,15.4,59.2,13.1,96.5h-60.2v-21.9c-.4-36.1-7.3-62.8-20.6-80.1-13.3-17.3-33.7-25.9-60.9-25.9s-52.8,9.5-68,28.5c-15.2,19-22.8,46.5-22.8,82.3s7.6,60.6,22.8,79.3c15.1,18.7,37,28.1,65.7,28.1s35.1-4.3,48.8-12.8c13.7-8.5,24.4-20.8,32.1-36.7l59.1,18.7c-12.1,27.8-30.5,49.4-55,64.7-24.6,15.3-51.9,22.9-82.1,22.9ZM1745.3,276.1v-46.9h222v46.9h-222Z"></path>
  <path fill="#00463c" d="M2185.3,423.3c-29,0-54-7.2-75-21.6-21-14.4-37.2-34-48.6-58.9-11.4-24.9-17.1-52.8-17.1-83.9s5.7-59.3,17.2-83.9c11.5-24.7,27.9-44.2,49.1-58.4,21.2-14.3,46.4-21.5,75.6-21.5s54.1,7.2,74.1,21.5c20.1,14.3,35.2,33.8,45.5,58.6,10.3,24.8,15.4,52.7,15.4,83.8s-5.2,59-15.6,83.8-25.6,44.4-45.8,58.9c-20.2,14.5-45.1,21.7-74.8,21.7ZM2193.7,368.9c19.8,0,35.9-4.7,48.4-14.1,12.5-9.4,21.6-22.4,27.4-38.9,5.8-16.5,8.6-35.5,8.6-57s-2.9-40.5-8.8-57c-5.9-16.5-14.9-29.4-27.1-38.6-12.2-9.2-27.7-13.8-46.5-13.8s-36.4,4.9-49.3,14.7c-12.8,9.8-22.4,22.9-28.6,39.5s-9.4,34.9-9.4,55.3,3.1,39.1,9.4,55.7c6.2,16.6,15.7,29.8,28.2,39.6,12.6,9.8,28.4,14.7,47.7,14.7ZM2278,414.7v-223.7h-6.9V0h60.5v414.7h-53.6Z"></path>
  <path fill="#00463c" d="M2531.2,423c-37.8,0-68.7-8.3-92.5-25.1-23.8-16.7-38.4-40.2-43.7-70.5l61.6-9.5c3.8,16.1,12.7,28.8,26.7,38.2,13.9,9.3,31.2,14,52,14s33.5-3.8,44.2-11.5c10.6-7.7,16-18.2,16-31.7s-1.9-14.2-5.6-19.1-11.6-9.5-23.5-14c-11.9-4.4-30-9.9-54.4-16.4-26.7-6.9-47.9-14.4-63.5-22.3-15.7-8-26.8-17.3-33.4-27.9-6.7-10.6-9.9-23.6-9.9-38.7s5-35.2,15-49.3c10-14,24-24.8,42.2-32.5,18.1-7.7,39.4-11.5,63.8-11.5s45,3.7,63.6,11.2c18.6,7.5,33.7,18.1,45.2,31.8,11.5,13.7,18.5,29.8,20.8,48.3l-61.6,11.2c-2.1-15-9.1-26.8-21-35.4-12-8.6-27.4-13.3-46.4-14.1-18.2-.7-33,2.3-44.3,9.1-11.3,6.8-17,16.2-17,28.1s2.2,12.8,6.5,17.6,12.7,9.4,25.2,13.8c12.5,4.4,30.9,9.7,55.3,15.8,26.1,6.7,46.9,14.2,62.2,22.3,15.4,8.2,26.3,17.9,33,29.1,6.6,11.2,9.9,24.8,9.9,40.8,0,30.7-11.2,54.8-33.6,72.3-22.4,17.5-53.2,26.2-92.6,26.2Z"></path>
  <path fill="#00463c" d="M2767.9,425.1c-9.3,0-18-1.7-26.2-5.2-8.1-3.4-15.2-8.2-21.4-14.4-6.1-6.1-11-13.3-14.4-21.4-3.5-8.1-5.2-16.8-5.2-26.1s1.7-17.8,5.2-25.9c3.4-8.1,8.2-15.2,14.4-21.3,6.1-6.1,13.3-10.9,21.4-14.4,8.1-3.5,16.8-5.2,26.2-5.2s17.9,1.7,25.9,5.2c8.1,3.4,15.1,8.2,21.3,14.4,6.1,6.1,11,13.2,14.4,21.3,3.5,8.1,5.2,16.7,5.2,25.9s-1.7,18-5.2,26.1c-3.4,8.1-8.2,15.3-14.4,21.4-6.1,6.1-13.2,10.9-21.3,14.4-8.1,3.5-16.7,5.2-25.9,5.2ZM2767.9,413c10.1,0,19.3-2.5,27.6-7.4,8.3-4.9,14.9-11.6,19.8-19.9,4.9-8.3,7.4-17.5,7.4-27.7s-2.4-19.2-7.4-27.5c-4.9-8.2-11.5-14.9-19.8-19.8s-17.5-7.4-27.6-7.4-19.5,2.5-27.7,7.4c-8.3,4.9-14.9,11.6-19.9,19.8-4.9,8.2-7.4,17.4-7.4,27.5s2.5,19.4,7.4,27.7c5,8.3,11.6,14.9,19.9,19.9s17.6,7.4,27.7,7.4ZM2744.5,390.6v-66.2h29.4c5.6,0,10.6,2.1,15,6.3,4.4,4.2,6.5,9.2,6.5,15s-1.1,7.5-3.4,11.2c-2.2,3.7-5.3,6.4-9.3,8.1l12.7,25.6h-11.8l-11.5-23.6h-17.3v23.6h-10.4ZM2754.9,357.2h18.7c2.9,0,5.4-1.1,7.7-3.4,2.3-2.2,3.5-5,3.5-8.1s-1.3-6.2-3.7-8.3c-2.5-2.1-5-3.2-7.5-3.2h-18.7v23Z"></path>
  <metadata>
    
      
      
    
  </metadata>
  <metadata>

   
      
         application/pdf
         
            
               Logo
            
         
         2025-08-29T11:09:47+02:00
         2025-08-29T11:09:47+02:00
         2025-08-29T11:09:47+02:00
         Adobe Illustrator 29.7 (Macintosh)
         
            
               
                  256
                  52
                  JPEG
                  /9j/4AAQSkZJRgABAgEAAAAAAAD/7QAsUGhvdG9zaG9wIDMuMAA4QklNA+0AAAAAABAAAAAAAAEA
AQAAAAAAAQAB/+4ADkFkb2JlAGTAAAAAAf/bAIQABgQEBAUEBgUFBgkGBQYJCwgGBggLDAoKCwoK
DBAMDAwMDAwQDA4PEA8ODBMTFBQTExwbGxscHx8fHx8fHx8fHwEHBwcNDA0YEBAYGhURFRofHx8f
Hx8fHx8fHx8fHx8fHx8fHx8fHx8fHx8fHx8fHx8fHx8fHx8fHx8fHx8fHx8f/8AAEQgANAEAAwER
AAIRAQMRAf/EAaIAAAAHAQEBAQEAAAAAAAAAAAQFAwIGAQAHCAkKCwEAAgIDAQEBAQEAAAAAAAAA
AQACAwQFBgcICQoLEAACAQMDAgQCBgcDBAIGAnMBAgMRBAAFIRIxQVEGE2EicYEUMpGhBxWxQiPB
UtHhMxZi8CRygvElQzRTkqKyY3PCNUQnk6OzNhdUZHTD0uIIJoMJChgZhJRFRqS0VtNVKBry4/PE
1OT0ZXWFlaW1xdXl9WZ2hpamtsbW5vY3R1dnd4eXp7fH1+f3OEhYaHiImKi4yNjo+Ck5SVlpeYmZ
qbnJ2en5KjpKWmp6ipqqusra6voRAAICAQIDBQUEBQYECAMDbQEAAhEDBCESMUEFURNhIgZxgZEy
obHwFMHR4SNCFVJicvEzJDRDghaSUyWiY7LCB3PSNeJEgxdUkwgJChgZJjZFGidkdFU38qOzwygp
0+PzhJSktMTU5PRldYWVpbXF1eX1RlZmdoaWprbG1ub2R1dnd4eXp7fH1+f3OEhYaHiImKi4yNjo
+DlJWWl5iZmpucnZ6fkqOkpaanqKmqq6ytrq+v/aAAwDAQACEQMRAD8A4r5M8n6v5v8AMNvoGkel
9fuVkaL1mKJSJDI1WAb9lT2wK9Hl/wCcU/zWSMsq2ErDoi3NCf8AgkUfjhVJY9W/OP8AJ/WoILiS
604E80sp39ewuEWnKgDNE2xoSpDLXqDir64/K/8AMfSfP3leLWLIehcofR1CxJq0E4FStdqqw+JW
7j3BAVZdirsVdirsVdirsVdirsVdirsVdirsVdirsVdirsVdirsVdirsVdirw7/nL7/yWum/9tmD
/qFucVV/+cSf/JX3P/bVuP8AkzDir2rFXYq7FXYq7FXxH/zjN/5OPRv+MV3/ANQsmKvtzFWEfnN5
Ms/Nn5eatYyxB7u2gkvNOkpV0uIFLrx/16FD7HFXzt/ziZ5jmsPzCuNFLN9V1m0cemDt69t+9Rz8
o/UH04q9s/Pv84JPy/0S3t9LVJfMOqchaepRkgiSgeZl/aNSAgOxNT+zQqvnTR/L/wCfX5kK+rWs
upajbVIW7nuvq8BIJBWH1HjQ0NaiMUGKtT65+eX5T6vbpqF1e2QerQ21zL9bsZ1FOYUcpIm2I5cS
GWvY4q988y+bNa8+/kO/mvyteXGk6zaJ9bnis5WjcPaVW6gLKQzLwLOo7/DirG/+cWvzR1rXLzV/
LnmHUp9QvOK32nzXUhkfitI5owzktQVRgv8ArHFX0Rir5C84/mT5783fnNLoXlXXr2w02e+j0yyS
0ndIgsZEctxRCAQSHkr/AC4qz/8A5ym8zeZfLOm+Vo9C1e808yNdRzyQTujyiJIQpkZSCx3PXxxV
5Lbfmb+dnnq2sfK2g3N9M9rBxuDZu4uJ6E8prq5JDBTy40LBeg3OKpX5h8u/nX5AMGp6s2paSsjh
Yr2K89ROZqQjSQSyKCeJ+Fjvir6I/wCcdvzkvvPFhdaPrrK/mDTEWX6wqhPrNuSF9QqtFDoxAagA
3HvirKvzf/NKw/Lzy1+kJIxc6pds0Ol2ZNA8gFS7kb+nHUFqew71xV8wWU/58fm3fXE9lc3l1axv
+89Ob6nYQnYhAOUcfIAjYVem5xVfqulfn7+VTRarPdXtpZFwPrEdyLu0Lnos0fKRN+g5rv2xV9J/
kr+a9v8AmH5be4mjW21rT2WLU7ZK8KsCUljrU8JOJ2PQgj3KqX/np+c8X5faXDaaeiXHmTUVLWkU
m8cMQNDPIoIJ32Re5r4UKr560jQfz9/M8Nq8NzfXlmWPG6nuRa23KpBEKFo02Ox9NaDFV1zqP57/
AJQajbSX9xdQWkrH0op5vrlhPQ1ZacnVWPtxfFX1X+WX5g6d588p2+u2aehKWMF9aE8jDcIAXSvc
UYMp8CMVeaf85CfnveeU5/8AC3ll1XXHjWS/viA31VJBVERTUeqykNU/ZWnUnZV4xovkH8+/O9sN
ftjqF3BPvFe3d76JkA6GP1pEYoOxUcfDFUm8+av+amn2A8ledZrsxW88d7bwXzes4aNJIVaG4Jfn
EVkYfCxWo274q+jP+cSf/JX3P/bVuP8AkzDirBPz0/PLzjcecLjyZ5PuJbGG0mWzlmtARd3N0SAy
RuPjQK/wAJQk13IIGKsYk/JP/nIUWv6UZbpp6eqYxqKm56VrT1fte1a4qmn5T/8AOQHnPy/5ng8v
edLme90yS4+qXT33JruzlLcOTO/7whX+2r1IFab7FV9cYq7FXxH/AM4zf+Tj0b/jFd/9QsmKvtzF
UNqd1BaaddXdwA1vbwySzA0oURSzVr7DFXxR/wA41RSP+c2gso+GJbx3+Rs5l/WwxV9UfmpYflR+
h/0j+YFtZtax0jhuJ1IuSdyIoXipOepPFD74q8rf/nK3yNoGn22k+VvLl3Pp9jEsFsk8iWqhIxRQ
KfWWPzbc98VeW/mv+fGp/mHpUGl3Wj2tjb21wLmGVGeSdWCMhXmeI4tz3HHsPDFXt3/OI5E35Yaj
FKoaMavcRlSKgqba3JBB6/axV4hexT/lF+eQdAwsdNvRLEBUmTTrkbrX9o+jIV/1hir6r/NfztD5
Y/LfVdetplM0luItLkRh8U9yOELoR148vU27DFXgv/OI3k433mXUvNdwlYdKi+rWjNXe5uQebKf8
iIEH/XGKp9/zmX/vF5U/4y3v/EYMVZZ/zipoFtYflemprGBc6xdTTSzUHJkgcwItevFTGxHuTir0
/wA1+XrLzH5b1HQ72NZIL+B4SHFQrMPgceBRqMD2IxV8e/8AOL91PD+b+nRxsVS5t7uKYD9pBA0g
B/2UanFUz/5yy1i4u/zKh09iRb6bYxJGnbnMWld/mQVH0YqnvkL/AJya8reUfKOmeX7by3cMLKFV
nmWaNfVnb4pZKcf23JPy2xVE+bf+cp/LHmPyzqmhXPlq49LUbaSDk80bBGdTwkpx6o9GHuMVYt/z
ifqk9r+Z72ak+jqFhPHKvasZWVW+Y4EfTirHv+cg9Yl1T83deaUt6VpJHZxKd+KQRqppv3fk304q
9U0f/nLLypo+lWelWHle6is7GFLe3jFxFskahRWiDfbfFUh/M/8A5yO8t+d/Jl95efy/PBNPwktb
p5o39KWNwyuAFruKqadicVTH/nDjVLhdU8yaVWtvJBBdAE7K8btGaD/KEm/yxV5j6I87/ngYb3kY
NY10pOpNGFubihQGv7MQ4jFX3bFFFDEkMKLHFGoSONAFVVUUAAGwAGKvDv8AnLjRLO58gWOrMg+u
6ffJHFL39K4RhInyLKh+jFUT/wA4k/8Akr7n/tq3H/JmHFXjn50+RvOPkn8yrzzhZQSnTrjUDqth
qsal4455JfW9OXqEZZCQA32h0xVnHln/AJzEj4xxeZ9BIav7y702QEU9oJj/AMzcVZx5VX/nHz8x
dduNbsbKzvvMNyVmu7W+VxNWNQnL6tKTEwCqORjBHc7nFXruKuxV8R/84zf+Tj0b/jFd/wDULJir
7cxV4Z/zkR+c+h6X5XvPK+iXsd5rmqo1tcm3dZFtrd/hl9RlqA7rVAvUV5bbVVYp/wA4h+SLk32p
ecrmPjapGdP05mH25GZXmdf9QKq1/wAojtirEf8AnKnWtQvfzRl06Zz9T0u2gjtIv2R60Ymkeniz
PQn2GKvfPIP5BflloekWcsmm2+uX0kSPLqF4v1hJGZQeUcT1iVd/h+GtOpOKvOP+crdY8s6Xoel+
TtHtra2u5Lhb+8htY44/TiijeOJXVAKczKSPZffFWTf84g/+S11L/tsz/wDULbYqk/8Azl55K+sa
VpnnC2jrLYt9Q1Aiv9zKS0LnwCScl/2YxV4x5w/NO+8xfl35V8pyFx+gxILtyfhl4fu7Sg/4qhJX
FX1r+SPk3/Cf5baTp8sfp31yn17UAQQ3r3IDlWB/ajTjGf8AVxV5V/zmX/vF5U/4y3v/ABGDFXov
/ONv/klvLv8A0ef9R0+KvS8VfEf/ADjN/wCTj0b/AIxXf/ULJirIf+ct/L9xZ+fbLWgh+qarZIgk
7etbMUdfoRoz9OKvWvyW078p/OPkPTblfLmizarZwR2urRPY2rTLPGoUyPVCxEvHmG718QcVT3zv
ov5M+TfL1zreseWdEjhhU+jD9QtBJPLT4IYx6e7Mfu6nYHFUq/KDzn+TnmrUZG8qeXrfR9etYDLK
o0+C3lWIkI/G4gUrTk4FOQJ8OtFXz1/zkZoM+ifm5qk7R/6PqXpahalxVXEigSda7esjimKvpzyV
oH5O+b/Ldnrml+WNEkhuUBliFhaFoZafHFIPT2ZDt+PQ4qlv5lD8k/IGiDUdV8q6NLPKwSz0+Kws
/XmNRzKAx/ZRTUsdu3UjFUw/KLzL+VXmSG9v/JGjwaVcQBI9QRLCOzlCyVZFZ4V9NweB2VzTv2xV
8reY1uPy/wDzuubh4m4aRrAvYo60L2rTCdBX/LhYDFX3FpGradrGmW2qabOl1YXkay286Gqsrfx7
Edjirwn/AJy683adD5Z0/wArRyq+pXdyl5PECCY7eFWALDtzdhx+RxVN/wDnEn/yV9z/ANtW4/5M
w4qiLX/nJ78v73zPb+XmtL23W4nNncXl6kMUETmqDmPUc8S/wtyAp1xVkvmX8i/ys8xI7XOhwWtx
INruw/0WQH+akVEY/wCspxV8h+eNHP5d/mhd2Pl7UHmbRriKSyvAw9VWKLJwcpQFkLFG8fDtir7G
/MTzfrGkNp2jeX4I5de1j12hnuKmC2trRA9zcOoILlA6hEqORPXxVee6T+avm/TVj1a/v5dZ0Zbe
11DUbW906HTrlNNvX9OO+s2t5p45ERj8SSUanfuFLyJP+cYPzgjYNHaWyMOjLdxg/gcULpP+cY/z
klAEttbuB0DXkZ/WcVZb5O/5xC1d7yOfzdqkENkp5PZ6eWkmkAP2TK6osfzAb6MVfTGkaRpmj6Zb
aXpdslpYWiCO3t4xRVUfrJ6kncnc74q8g/P78ibvzvLDr/l940163iEE9rKQkdxEpJWj/syLyI+L
YjuKYq8o0ryj/wA5T6RZJommpqdtZRfuoYUu7f00Fekchkoi7/ssBiqYf9Cs+erry3f6rql0l35s
unQ21k0/KlZAZZLi4c0dytaAEj3J6KvYv+cevIXmPyR5LvdK1+KOK8n1KW6jWKRZR6TwQRg8l78o
m2xVmfnnQ9M13yfrGk6m6xWN1aSrNO/SLivJZf8Anmyh/oxV8S/kt5NHmz8yNJ0yRPVsYZPreoVB
Km3t/jZW9pG4p/ssVfe2KvGv+cjvyx82eerbQY/L0MUzWD3LXIllWKglEQWnLr9g4qzD8mfK2r+V
fy20fQdYRI9Rs/rPrpG4kUerdSyrRhsfgcYqzXFXzL+Sf5EfmH5T/MXTtd1m2gi0+2S4WV450kas
sDxrRV3+0wxV7v5/8haF548uTaJq6H02PqW1wn95BMoIWVPcV3HcbYq+WtV/5x2/OXypqr3Hlove
xof3Go6Zci2m41+HkjPFIrdCQvIDxxVQt/yF/PPzZqaSa9HNHvxfUdXvBMVHsOc0x+haYq+mfyq/
KvRPy80NrGyc3V/dFX1HUHHFpnUHiAtTxRKnite+Ktfmt+VOifmHoi2d4xtdRtSz6dqKLyaJmpyV
lqOaPQclrir5ol/In8+PKd+7aCk5BPEX2kXoh5incc4ZRt4riqrov/OOX5v+adV+s+Y+Wnxuf9I1
HUbgXE5AO/FFeSRm325FR74q+pvIHkTRPJHluDQ9IU+khMlxcP8A3k8zAB5Xp3NAAOwoMVYd+dv5
HWX5g20WoWEqWPmW0T04biSvpTRVJ9KbiCw4kkqwBpuKHsq8Dsfyr/5yO8stLZ6NBqVnA5q40++R
YX7cqRzAV+YriqN/6Fg/NfUdNudX1OSI63LKvGxnuFmnkqfjlmn5NHt2ozE+3dV7z+QHkXzD5L8j
zaRr0ccV699LcKsUiyL6bxxqDyXbqhxVgf50f8403mvazdeZfKEkS3t4xmv9Knb01kmY/HLDIfhD
Od2V6CtTXtirzq18hf8AOT2mWv6Ls11i3s4x6aQQagvpKvSicJ+IH+rirLfyr/5xh8wLr9vrvnpo
4YLaUXA0tZFuJZ5VPIeu6lownLdqM3Lptir2X8yfLWv3V1pnmPy5DHdatpKXNtPp0jrF9bsr1FSa
NZW2WRCivHyPGta4q820P8utXvLV/LuieX73y/o+qWdhYeatQ1QW8TOLAn1HtUhlmd5LhTxJ2j79
Til9BYodirsVdirsVdirsVdiryn/AJyW84f4f/LK7tYX43uuuNPhANCInBa4anh6SlD/AKwxVif/
ADiJ5O+qeXtS813EdJtTk+qWTEH/AHntzWRl9nl2P+pir6CxV2KuxV2KuxV2KuxV2KuxV2KuxV2K
uxV2KuxV2KuxV2KuxV2KuxV2KuxV2KuxV2KuxV2KuxV2KvMvzm/5Utz0n/lZfLpP+i/+Ohw/Y9an
1L4a/Y+1virMPIv+FP8ACOmf4S4/4c9H/cbw9Snp8jX++/eV5Vrz3r1xVPcVdirsVdirsVdirsVd
irsVdirsVdirsVdirsVdirsVdirsVdirsVdir//Z
               
            
         
         uuid:de431996-6921-fa4e-b4e7-756538832ba0
         xmp.did:59cd67e1-db13-4005-ae48-ad6beedf048b
         uuid:5D20892493BFDB11914A8590D31508C8
         proof:pdf
         
            uuid:e465f721-9b27-fd44-a210-47378df2a869
            xmp.did:a04f1cef-3db2-423e-ba89-dcec983bf966
            uuid:5D20892493BFDB11914A8590D31508C8
            proof:pdf
         
         
            
               
                  saved
                  xmp.iid:59cd67e1-db13-4005-ae48-ad6beedf048b
                  2025-08-27T11:07:50+02:00
                  Adobe Illustrator 29.7 (Macintosh)
                  /
               
            
         
         Document
         Print
         AIRobin
         True
         False
         False
         1
         
            100.000000
            19.504472
            Centimeters
         
         
            
               Cyan
               Magenta
               Yellow
               Black
            
         
         
            
               
                  Default Swatch Group
                  0
                  
                     
                        
                           Blanc
                           CMYK
                           PROCESS
                           0.000000
                           0.000000
                           0.000000
                           0.000000
                        
                        
                           Noir
                           CMYK
                           PROCESS
                           0.000000
                           0.000000
                           0.000000
                           100.000000
                        
                        
                           Rouge CMJN
                           CMYK
                           PROCESS
                           0.000000
                           100.000000
                           100.000000
                           0.000000
                        
                        
                           Jaune CMJN
                           CMYK
                           PROCESS
                           0.000000
                           0.000000
                           100.000000
                           0.000000
                        
                        
                           Vert CMJN
                           CMYK
                           PROCESS
                           100.000000
                           0.000000
                           100.000000
                           0.000000
                        
                        
                           Cyan CMJN
                           CMYK
                           PROCESS
                           100.000000
                           0.000000
                           0.000000
                           0.000000
                        
                        
                           Bleu CMJN
                           CMYK
                           PROCESS
                           100.000000
                           100.000000
                           0.000000
                           0.000000
                        
                        
                           Magenta CMJN
                           CMYK
                           PROCESS
                           0.000000
                           100.000000
                           0.000000
                           0.000000
                        
                        
                           C=15 M=100 J=90 N=10
                           CMYK
                           PROCESS
                           15.000000
                           100.000000
                           90.000000
                           10.000000
                        
                        
                           C=0 M=90 J=85 N=0
                           CMYK
                           PROCESS
                           0.000000
                           90.000000
                           85.000000
                           0.000000
                        
                        
                           C=0 M=80 J=95 N=0
                           CMYK
                           PROCESS
                           0.000000
                           80.000000
                           95.000000
                           0.000000
                        
                        
                           C=0 M=50 J=100 N=0
                           CMYK
                           PROCESS
                           0.000000
                           50.000000
                           100.000000
                           0.000000
                        
                        
                           C=0 M=35 J=85 N=0
                           CMYK
                           PROCESS
                           0.000000
                           35.000000
                           85.000000
                           0.000000
                        
                        
                           C=5 M=0 J=90 N=0
                           CMYK
                           PROCESS
                           5.000000
                           0.000000
                           90.000000
                           0.000000
                        
                        
                           C=20 M=0 J=100 N=0
                           CMYK
                           PROCESS
                           20.000000
                           0.000000
                           100.000000
                           0.000000
                        
                        
                           C=50 M=0 J=100 N=0
                           CMYK
                           PROCESS
                           50.000000
                           0.000000
                           100.000000
                           0.000000
                        
                        
                           C=75 M=0 J=100 N=0
                           CMYK
                           PROCESS
                           75.000000
                           0.000000
                           100.000000
                           0.000000
                        
                        
                           C=85 M=10 J=100 N=10
                           CMYK
                           PROCESS
                           85.000000
                           10.000000
                           100.000000
                           10.000000
                        
                        
                           C=90 M=30 J=95 N=30
                           CMYK
                           PROCESS
                           90.000000
                           30.000000
                           95.000000
                           30.000000
                        
                        
                           C=75 M=0 J=75 N=0
                           CMYK
                           PROCESS
                           75.000000
                           0.000000
                           75.000000
                           0.000000
                        
                        
                           C=80 M=10 J=45 N=0
                           CMYK
                           PROCESS
                           80.000000
                           10.000000
                           45.000000
                           0.000000
                        
                        
                           C=70 M=15 J=0 N=0
                           CMYK
                           PROCESS
                           70.000000
                           15.000000
                           0.000000
                           0.000000
                        
                        
                           C=85 M=50 J=0 N=0
                           CMYK
                           PROCESS
                           85.000000
                           50.000000
                           0.000000
                           0.000000
                        
                        
                           C=100 M=95 J=5 N=0
                           CMYK
                           PROCESS
                           100.000000
                           95.000000
                           5.000000
                           0.000000
                        
                        
                           C=100 M=100 J=25 N=25
                           CMYK
                           PROCESS
                           100.000000
                           100.000000
                           25.000000
                           25.000000
                        
                        
                           C=75 M=100 J=0 N=0
                           CMYK
                           PROCESS
                           75.000000
                           100.000000
                           0.000000
                           0.000000
                        
                        
                           C=50 M=100 J=0 N=0
                           CMYK
                           PROCESS
                           50.000000
                           100.000000
                           0.000000
                           0.000000
                        
                        
                           C=35 M=100 J=35 N=10
                           CMYK
                           PROCESS
                           35.000000
                           100.000000
                           35.000000
                           10.000000
                        
                        
                           C=10 M=100 J=50 N=0
                           CMYK
                           PROCESS
                           10.000000
                           100.000000
                           50.000000
                           0.000000
                        
                        
                           C=0 M=95 J=20 N=0
                           CMYK
                           PROCESS
                           0.000000
                           95.000000
                           20.000000
                           0.000000
                        
                        
                           C=25 M=25 J=40 N=0
                           CMYK
                           PROCESS
                           25.000000
                           25.000000
                           40.000000
                           0.000000
                        
                        
                           C=40 M=45 J=50 N=5
                           CMYK
                           PROCESS
                           40.000000
                           45.000000
                           50.000000
                           5.000000
                        
                        
                           C=50 M=50 J=60 N=25
                           CMYK
                           PROCESS
                           50.000000
                           50.000000
                           60.000000
                           25.000000
                        
                        
                           C=55 M=60 J=65 N=40
                           CMYK
                           PROCESS
                           55.000000
                           60.000000
                           65.000000
                           40.000000
                        
                        
                           C=25 M=40 J=65 N=0
                           CMYK
                           PROCESS
                           25.000000
                           40.000000
                           65.000000
                           0.000000
                        
                        
                           C=30 M=50 J=75 N=10
                           CMYK
                           PROCESS
                           30.000000
                           50.000000
                           75.000000
                           10.000000
                        
                        
                           C=35 M=60 J=80 N=25
                           CMYK
                           PROCESS
                           35.000000
                           60.000000
                           80.000000
                           25.000000
                        
                        
                           C=40 M=65 J=90 N=35
                           CMYK
                           PROCESS
                           40.000000
                           65.000000
                           90.000000
                           35.000000
                        
                        
                           C=40 M=70 J=100 N=50
                           CMYK
                           PROCESS
                           40.000000
                           70.000000
                           100.000000
                           50.000000
                        
                        
                           C=50 M=70 J=80 N=70
                           CMYK
                           PROCESS
                           50.000000
                           70.000000
                           80.000000
                           70.000000
                        
                     
                  
               
               
                  Gris
                  1
                  
                     
                        
                           C=0 M=0 J=0 N=100
                           CMYK
                           PROCESS
                           0.000000
                           0.000000
                           0.000000
                           100.000000
                        
                        
                           C=0 M=0 J=0 N=90
                           CMYK
                           PROCESS
                           0.000000
                           0.000000
                           0.000000
                           89.999400
                        
                        
                           C=0 M=0 J=0 N=80
                           CMYK
                           PROCESS
                           0.000000
                           0.000000
                           0.000000
                           79.998800
                        
                        
                           C=0 M=0 J=0 N=70
                           CMYK
                           PROCESS
                           0.000000
                           0.000000
                           0.000000
                           69.999700
                        
                        
                           C=0 M=0 J=0 N=60
                           CMYK
                           PROCESS
                           0.000000
                           0.000000
                           0.000000
                           59.999100
                        
                        
                           C=0 M=0 J=0 N=50
                           CMYK
                           PROCESS
                           0.000000
                           0.000000
                           0.000000
                           50.000000
                        
                        
                           C=0 M=0 J=0 N=40
                           CMYK
                           PROCESS
                           0.000000
                           0.000000
                           0.000000
                           39.999400
                        
                        
                           C=0 M=0 J=0 N=30
                           CMYK
                           PROCESS
                           0.000000
                           0.000000
                           0.000000
                           29.998800
                        
                        
                           C=0 M=0 J=0 N=20
                           CMYK
                           PROCESS
                           0.000000
                           0.000000
                           0.000000
                           19.999700
                        
                        
                           C=0 M=0 J=0 N=10
                           CMYK
                           PROCESS
                           0.000000
                           0.000000
                           0.000000
                           9.999100
                        
                        
                           C=0 M=0 J=0 N=5
                           CMYK
                           PROCESS
                           0.000000
                           0.000000
                           0.000000
                           4.998800
                        
                     
                  
               
               
                  Couleurs vives
                  1
                  
                     
                        
                           C=0 M=100 J=100 N=0
                           CMYK
                           PROCESS
                           0.000000
                           100.000000
                           100.000000
                           0.000000
                        
                        
                           C=0 M=75 J=100 N=0
                           CMYK
                           PROCESS
                           0.000000
                           75.000000
                           100.000000
                           0.000000
                        
                        
                           C=0 M=10 J=95 N=0
                           CMYK
                           PROCESS
                           0.000000
                           10.000000
                           95.000000
                           0.000000
                        
                        
                           C=85 M=10 J=100 N=0
                           CMYK
                           PROCESS
                           85.000000
                           10.000000
                           100.000000
                           0.000000
                        
                        
                           C=100 M=90 J=0 N=0
                           CMYK
                           PROCESS
                           100.000000
                           90.000000
                           0.000000
                           0.000000
                        
                        
                           C=60 M=90 J=0 N=0
                           CMYK
                           PROCESS
                           60.000000
                           90.000000
                           0.003100
                           0.003100
                        
                     
                  
               
            
         
         Adobe PDF library 17.00
      
   

                                                                                                    
                                                                                                    
                                                                                                    
                                                                                                    
                                                                                                    
                                                                                                    
                                                                                                    
                                                                                                    
                                                                                                    
                                                                                                    
                                                                                                    
                                                                                                    
                                                                                                    
                                                                                                    
                                                                                                    
                                                                                                    
                                                                                                    
                                                                                                    
                                                                                                    
                                                                                                    
                           

  </metadata>
</svg>